<svg width="40" height="40" viewBox="0 0 40 40" fill="none" xmlns="http://www.w3.org/2000/svg">
<path fill-rule="evenodd" clip-rule="evenodd" d="M5 0H35C37.7575 0 40 2.2425 40 5V35C40 37.7575 37.7575 40 35 40H27.5V26.25H31.25L33.75 20H27.5V15C27.5 13.7315 28.4463 13.7388 29.6709 13.7483C29.7786 13.7492 29.8885 13.75 30 13.75H32.5V7.5H27.5C25.5109 7.5 23.6032 8.29018 22.1967 9.6967C20.7902 11.1032 20 13.0109 20 15V20H15V26.25H20V40H5C2.2425 40 0 37.7575 0 35V5C0 2.2425 2.2425 0 5 0Z" fill="#D6000D"/>
</svg>
