<svg width="50" height="40" viewBox="0 0 50 40" fill="none" xmlns="http://www.w3.org/2000/svg">
<path d="M49.2311 4.73501C47.3792 5.54271 45.4206 6.07951 43.4157 6.32886C45.5285 5.0754 47.1083 3.09058 47.8557 0.750366C45.8773 1.92372 43.7127 2.75 41.4557 3.19346C40.0718 1.71585 38.2755 0.688577 36.3002 0.245115C34.3249 -0.198348 32.2619 -0.037505 30.3792 0.706747C28.4965 1.451 26.8812 2.74426 25.743 4.4185C24.6049 6.09274 23.9965 8.07058 23.9971 10.095C23.9971 10.895 24.0648 11.6643 24.2309 12.3966C20.2158 12.1997 16.2874 11.1577 12.7025 9.33848C9.11774 7.51929 5.95725 4.96398 3.42771 1.8396C2.13176 4.06072 1.73112 6.69228 2.30735 9.19843C2.88358 11.7046 4.39336 13.8969 6.52927 15.3289C4.93159 15.2861 3.36763 14.8597 1.96924 14.0858V14.1966C1.97192 16.5272 2.77745 18.7857 4.25023 20.5919C5.72302 22.3981 7.77312 23.6418 10.0554 24.1136C9.19202 24.3411 8.30216 24.4529 7.40928 24.4459C6.76801 24.4573 6.12738 24.3995 5.4985 24.2736C6.15063 26.2768 7.40771 28.0285 9.09666 29.2876C10.7856 30.5468 12.8234 31.2514 14.9293 31.3044C11.3568 34.0984 6.95073 35.614 2.4154 35.6091C1.5877 35.6091 0.793851 35.5721 0 35.4706C4.61505 38.4446 9.99291 40.0178 15.4832 39.9999C34.0556 39.9999 44.2095 24.6151 44.2095 11.2797C44.2095 10.8335 44.1941 10.4027 44.1726 9.97504C46.1633 8.55037 47.8775 6.77465 49.2311 4.73501V4.73501Z" fill="#D6000D"/>
</svg>
